# xmcd
#
# Track frame offsets:
#	182
#	13372
#	25640
#	35325
#	44750
#	55605
#	67920
#	81752
#	94452
#	107015
#	118137
#	128120
#	138740
#	149342
#	161212
#	170700
#	180520
#	191325
#	201937
#	213905
#	226220
#	235975
#	247982
#	257487
#	269912
#	284355
#	293405
#
# Disc length: 4075 seconds
#
# Revision: 0
# Processed by: cddbd v1.4PL0 Copyright (c) Steve Scherf et al.
# Submitted via: dBpowerAMP V4.0
#
DISCID=940fe91b
DTITLE=Billy Jack Wills and His Western Swing Band - There's Good Rockin' Tonight
DYEAR=1900
DGENRE=Country
TTITLE0=Rock-A-Bye Baby Blues
TTITLE1=Bottle Baby Boogie
TTITLE2=She's A Quarter Horse Type (Of A Gal)
TTITLE3=Cadillac In Model =A=
TTITLE4=Out Of Gas
TTITLE5=I Don't Want To Live Alone
TTITLE6=Teardrops On A Dieary
TTITLE7=For The Children's Sake
TTITLE8=There's Good Rockin' Tonight
TTITLE9=Red Mittens
TTITLE10=Hey Lula (Hey Lu-La)
TTITLE11=Four Beers And Forty Tears
TTITLE12=All She Want's To Do Is Rock
TTITLE13=When A New Love Is Born
TTITLE14=Hey Mr. Mailman
TTITLE15=I Loved And Lost
TTITLE16=My Shoes Keep Walkin' Back To You
TTITLE17=Will Miss Me When I'm Gone
TTITLE18=Troubles (Those Lonesome Kind)
TTITLE19=Not Very Long
TTITLE20=Cadillac in Model =A=
TTITLE21=Blues For You, My Love
TTITLE22=Lonesome Hearted Blues
TTITLE23=Rock-A-Bye Baby Blues
TTITLE24=Milkcow Blues
TTITLE25=Lonesome Hearted Blues
TTITLE26=Roped And Tied
EXTD=
EXTT0=
EXTT1=
EXTT2=
EXTT3=
EXTT4=
EXTT5=
EXTT6=
EXTT7=
EXTT8=
EXTT9=
EXTT10=
EXTT11=
EXTT12=
EXTT13=
EXTT14=
EXTT15=
EXTT16=
EXTT17=
EXTT18=
EXTT19=
EXTT20=
EXTT21=
EXTT22=
EXTT23=
EXTT24=
EXTT25=
EXTT26=
PLAYORDER=
